<svg width="64" height="64" viewBox="0 0 64 64" fill="none" xmlns="http://www.w3.org/2000/svg" role="img" aria-label="پارس انرژی">
  <rect width="64" height="64" rx="16" fill="#1E3A5F"/>
  <g fill="#F5B400">
    <circle cx="32" cy="32" r="9"/>
    <g>
      <rect x="30.25" y="6" width="3.5" height="8" rx="1.75"/>
      <rect x="30.25" y="6" width="3.5" height="8" rx="1.75" transform="rotate(45 32 32)"/>
      <rect x="30.25" y="6" width="3.5" height="8" rx="1.75" transform="rotate(90 32 32)"/>
      <rect x="30.25" y="6" width="3.5" height="8" rx="1.75" transform="rotate(135 32 32)"/>
      <rect x="30.25" y="6" width="3.5" height="8" rx="1.75" transform="rotate(180 32 32)"/>
      <rect x="30.25" y="6" width="3.5" height="8" rx="1.75" transform="rotate(225 32 32)"/>
      <rect x="30.25" y="6" width="3.5" height="8" rx="1.75" transform="rotate(270 32 32)"/>
      <rect x="30.25" y="6" width="3.5" height="8" rx="1.75" transform="rotate(315 32 32)"/>
    </g>
  </g>
</svg>
